<svg class="canvas" viewBox="0 0 1920 1080" preserveAspectRatio="xMaxYMid slice" xmlns="http://www.w3.org/2000/svg" version="1.1" xmlns:xlink="http://www.w3.org/1999/xlink" xmlns:svgjs="http://svgjs.dev/svgjs"><rect width="1920" height="1080" fill="hsl(167, 65%, 15%)"></rect><defs><linearGradient x1="0.5" y1="0" x2="0" y2="1" id="SvgjsLinearGradient1091"><stop stop-color="#28518a" offset="0"></stop><stop stop-color="#0e0614" offset="0.1"></stop></linearGradient><linearGradient x1="0.5" y1="0" x2="0" y2="1" id="SvgjsLinearGradient1092"><stop stop-color="#288a89" offset="0"></stop><stop stop-color="#060614" offset="0.22857142857142856"></stop></linearGradient><linearGradient x1="0.5" y1="0" x2="0" y2="1" id="SvgjsLinearGradient1093"><stop stop-color="#288a89" offset="0"></stop><stop stop-color="#060614" offset="0.3571428571428571"></stop></linearGradient><linearGradient x1="0.5" y1="0" x2="0" y2="1" id="SvgjsLinearGradient1094"><stop stop-color="#c0f2f1" offset="0"></stop><stop stop-color="#4244d7" offset="0.48571428571428565"></stop></linearGradient><linearGradient x1="0.5" y1="0" x2="0" y2="1" id="SvgjsLinearGradient1095"><stop stop-color="#c0f2e7" offset="0"></stop><stop stop-color="#4262d7" offset="0.6142857142857142"></stop></linearGradient><linearGradient x1="0.5" y1="0" x2="0" y2="1" id="SvgjsLinearGradient1096"><stop stop-color="#c0e8f2" offset="0"></stop><stop stop-color="#5d42d7" offset="0.7428571428571429"></stop></linearGradient><linearGradient x1="0.5" y1="0" x2="0" y2="1" id="SvgjsLinearGradient1097"><stop stop-color="#c0d5f2" offset="0"></stop><stop stop-color="#9942d7" offset="0.8714285714285713"></stop></linearGradient></defs><path d="M0,-495.7082629758818C49.70856283362417,-482.61477444207156,190.0284325694842,-440.0341394686617,298.251377001745,-417.1473317730204C406.47432143400584,-394.26052407737916,532.371052621326,-383.17881896615853,649.337666593565,-358.3874168020341C766.304280565804,-333.5960146379097,897.0594154129606,-301.6264393439737,1000.0510608351789,-268.3989187882741C1103.0427062573972,-235.1713982325745,1162.5595264705123,-200.65689324076493,1267.287539126875,-159.02229346783648C1372.0155517832375,-117.38769369490802,1519.6337266278329,-52.47699189936249,1628.4191367733538,-18.591320150703368C1737.2045469188747,15.294351597955753,1871.4031894622256,33.8112274949813,1920,44.291737024118234L 1920 1080 L 0 1080 Z" fill="url(#SvgjsLinearGradient1091)"></path><path d="M0,-445.5368980478113C56.74463351173119,-431.0748648640465,208.7911650328608,-402.9550124879474,340.4678010703871,-358.76469894522273C472.1444371079134,-314.5743854024981,658.1950996297654,-218.8026560712001,790.0598162251579,-180.39501679146335C921.9245328205503,-141.9873775117266,1006.2729999115652,-157.2146015202241,1131.6561006427416,-128.31886326680223C1257.039201373918,-99.42312501338034,1410.96777071934,-46.531867188382954,1542.3584206122164,-7.020587270932083C1673.7490705050927,32.49069264651879,1857.0597367687028,89.45391565309716,1920,108.748816237903L 1920 1080 L 0 1080 Z" fill="url(#SvgjsLinearGradient1092)"></path><path d="M0,-261.0030957556945C48.55279459510961,-251.21925807452908,180.20745848465015,-236.9641546096738,291.31676757065765,-202.30006966870195C402.42607665666515,-167.6359847277301,550.2707784604268,-92.43056711558161,666.6558545160451,-53.01858610986342C783.0409305716635,-13.606605104145231,886.0067543139501,0.7437824150198153,989.6272239043681,34.171816365607185C1093.247693494786,67.59985031619456,1183.600681469329,117.69194939501419,1288.3786720585533,147.5496175936608C1393.1566626477777,177.4072857923074,1513.0249461161397,186.64803968714125,1618.2951674397143,213.3178255574868C1723.5653887632889,239.98761142783235,1869.7158612399523,291.85991493935956,1920,307.5683328157341L 1920 1080 L 0 1080 Z" fill="url(#SvgjsLinearGradient1093)"></path><path d="M0,-184.1457931963746C55.31573531209251,-179.5561866370716,247.4658258061877,-193.29075118228477,331.89441187255505,-156.6081538405566C416.3229979389224,-119.92555649882846,421.09598655165235,7.108335469112543,506.57151639820427,35.949790853994266C592.0470462447562,64.79124623887598,752.2434080467663,1.7356061601334343,844.7475909518666,16.44057846873372C937.251773856967,31.145550777334,969.7853657219716,94.8705708178933,1061.5966138288068,124.17962470559598C1153.407861935642,153.4886785932987,1292.1449959073625,154.39472776459223,1395.6150795928777,192.29490179494985C1499.0851632783929,230.19507582530747,1595.0196292073783,317.17792757677194,1682.4171159418986,351.5806688877417C1769.8146026764189,385.98341019871145,1880.4028526569832,390.8562361985972,1920,398.7113496607683L 1920 1080 L 0 1080 Z" fill="url(#SvgjsLinearGradient1094)"></path><path d="M0,-21.51813596077143C47.02025584313521,-8.813415728871464,191.47584831506265,21.163006895873316,282.1215350588113,54.71018543062837C372.7672218025599,88.25736396538343,448.1730219203094,144.1851032936612,543.8741204624919,179.7649352477589C639.5752190046743,215.3447672018566,765.5678416247175,245.36696212953413,856.328126311906,268.1891771552146C947.0884109990944,291.0113921808951,1001.3983652659203,297.7993112540613,1088.4358285856224,316.6982254018418C1175.4732919053245,335.5971395496223,1283.4776590321705,352.1732112855016,1378.5529062301187,381.58266204189755C1473.6281534280668,410.9921127982935,1568.6461294783307,460.814586750186,1658.887311773311,493.15492994021736C1749.1284940682913,525.4952731302487,1876.4812186288852,561.8797559751076,1920,575.6247211820858L 1920 1080 L 0 1080 Z" fill="url(#SvgjsLinearGradient1095)"></path><path d="M0,135.71166329725585C43.75642536192709,147.06459662060783,168.68535482292276,181.0625588371143,262.53855217156257,203.82926323736766C356.3917495202024,226.59596763762102,468.30195984631285,240.0481410293168,563.119184091839,272.3118896987761C657.9364083373652,304.5756383682354,738.9036152684547,355.2679818396928,831.4418976447193,397.4117552541233C923.980180020984,439.5555286685538,1030.4722954035187,493.76617969790976,1118.3488783494267,525.174530185359C1206.2254612953348,556.5828806728083,1273.6808211153555,559.6364577149955,1358.701395320167,585.8618581788188C1443.7219695249785,612.0872586426422,1534.922556131657,655.6472035437973,1628.472323578296,682.5269329682988C1722.022091024935,709.4066623928002,1871.412053929716,736.3713510995726,1920,747.1402347258273L 1920 1080 L 0 1080 Z" fill="url(#SvgjsLinearGradient1096)"></path><path d="M0,269.79457240653915C41.130485309184536,283.9021428697995,167.72473934859943,333.9393845130723,246.78291185510722,354.4399951861013C325.841084361615,374.94060585913036,396.08799957405654,372.1953728832841,474.3490350390466,392.7982364447133C552.6100705040367,413.40110000614254,635.2799006059699,449.78725202481223,716.3491246450476,478.05717655467663C797.4183486841252,506.327101084541,876.4745082887717,528.2300483185546,960.7643792735125,562.4177836238998C1045.0542502582534,596.605518929245,1142.5164744901006,655.4466783672942,1222.0883505534925,683.1835883867477C1301.6602266168845,710.9204984062012,1356.73732995764,709.8679727187438,1438.195635653864,728.8392437406205C1519.653941350088,747.8105147624973,1630.5374573398135,769.2329454546408,1710.8381847308362,797.0112145180082C1791.138912121859,824.7894835813755,1885.1396974551394,879.0925841870221,1920,895.5088581208249L 1920 1080 L 0 1080 Z" fill="url(#SvgjsLinearGradient1097)"></path></svg>