<svg id="visual" viewBox="0 0 960 300" width="960" height="300" xmlns="http://www.w3.org/2000/svg" xmlns:xlink="http://www.w3.org/1999/xlink" version="1.1"><rect x="0" y="0" width="960" height="300" fill="#202731"></rect><path d="M0 231L22.8 225.7C45.7 220.3 91.3 209.7 137 195.7C182.7 181.7 228.3 164.3 274 170.8C319.7 177.3 365.3 207.7 411.2 223.3C457 239 503 240 548.8 228.3C594.7 216.7 640.3 192.3 686 178.5C731.7 164.7 777.3 161.3 823 170.2C868.7 179 914.3 200 937.2 210.5L960 221L960 0L937.2 0C914.3 0 868.7 0 823 0C777.3 0 731.7 0 686 0C640.3 0 594.7 0 548.8 0C503 0 457 0 411.2 0C365.3 0 319.7 0 274 0C228.3 0 182.7 0 137 0C91.3 0 45.7 0 22.8 0L0 0Z" fill="#fa7268"></path><path d="M0 160L22.8 149.5C45.7 139 91.3 118 137 106.8C182.7 95.7 228.3 94.3 274 97.5C319.7 100.7 365.3 108.3 411.2 121.8C457 135.3 503 154.7 548.8 161.7C594.7 168.7 640.3 163.3 686 160.5C731.7 157.7 777.3 157.3 823 154.8C868.7 152.3 914.3 147.7 937.2 145.3L960 143L960 0L937.2 0C914.3 0 868.7 0 823 0C777.3 0 731.7 0 686 0C640.3 0 594.7 0 548.8 0C503 0 457 0 411.2 0C365.3 0 319.7 0 274 0C228.3 0 182.7 0 137 0C91.3 0 45.7 0 22.8 0L0 0Z" fill="#ec594d"></path><path d="M0 81L22.8 83.2C45.7 85.3 91.3 89.7 137 86.5C182.7 83.3 228.3 72.7 274 63.5C319.7 54.3 365.3 46.7 411.2 48.3C457 50 503 61 548.8 70.3C594.7 79.7 640.3 87.3 686 87.8C731.7 88.3 777.3 81.7 823 75.2C868.7 68.7 914.3 62.3 937.2 59.2L960 56L960 0L937.2 0C914.3 0 868.7 0 823 0C777.3 0 731.7 0 686 0C640.3 0 594.7 0 548.8 0C503 0 457 0 411.2 0C365.3 0 319.7 0 274 0C228.3 0 182.7 0 137 0C91.3 0 45.7 0 22.8 0L0 0Z" fill="#dd3f31"></path></svg>