<svg id="visual" viewBox="0 0 960 300" width="960" height="300" xmlns="http://www.w3.org/2000/svg" xmlns:xlink="http://www.w3.org/1999/xlink" version="1.1"><rect x="0" y="0" width="960" height="300" fill="#202731"></rect><path d="M0 237L22.8 225.5C45.7 214 91.3 191 137 187.3C182.7 183.7 228.3 199.3 274 198.2C319.7 197 365.3 179 411.2 176.8C457 174.7 503 188.3 548.8 188.5C594.7 188.7 640.3 175.3 686 167.5C731.7 159.7 777.3 157.3 823 162.8C868.7 168.3 914.3 181.7 937.2 188.3L960 195L960 0L937.2 0C914.3 0 868.7 0 823 0C777.3 0 731.7 0 686 0C640.3 0 594.7 0 548.8 0C503 0 457 0 411.2 0C365.3 0 319.7 0 274 0C228.3 0 182.7 0 137 0C91.3 0 45.7 0 22.8 0L0 0Z" fill="#fa7268"></path><path d="M0 106L22.8 118.3C45.7 130.7 91.3 155.3 137 163.2C182.7 171 228.3 162 274 158.5C319.7 155 365.3 157 411.2 150.3C457 143.7 503 128.3 548.8 121.3C594.7 114.3 640.3 115.7 686 121.8C731.7 128 777.3 139 823 148.5C868.7 158 914.3 166 937.2 170L960 174L960 0L937.2 0C914.3 0 868.7 0 823 0C777.3 0 731.7 0 686 0C640.3 0 594.7 0 548.8 0C503 0 457 0 411.2 0C365.3 0 319.7 0 274 0C228.3 0 182.7 0 137 0C91.3 0 45.7 0 22.8 0L0 0Z" fill="#fd5b64"></path><path d="M0 93L22.8 94.3C45.7 95.7 91.3 98.3 137 95.7C182.7 93 228.3 85 274 83.8C319.7 82.7 365.3 88.3 411.2 98.7C457 109 503 124 548.8 129.5C594.7 135 640.3 131 686 126.3C731.7 121.7 777.3 116.3 823 106.8C868.7 97.3 914.3 83.7 937.2 76.8L960 70L960 0L937.2 0C914.3 0 868.7 0 823 0C777.3 0 731.7 0 686 0C640.3 0 594.7 0 548.8 0C503 0 457 0 411.2 0C365.3 0 319.7 0 274 0C228.3 0 182.7 0 137 0C91.3 0 45.7 0 22.8 0L0 0Z" fill="#ff3f63"></path><path d="M0 42L22.8 41.5C45.7 41 91.3 40 137 42.7C182.7 45.3 228.3 51.7 274 55.2C319.7 58.7 365.3 59.3 411.2 59.8C457 60.3 503 60.7 548.8 56.5C594.7 52.3 640.3 43.7 686 48C731.7 52.3 777.3 69.7 823 77.7C868.7 85.7 914.3 84.3 937.2 83.7L960 83L960 0L937.2 0C914.3 0 868.7 0 823 0C777.3 0 731.7 0 686 0C640.3 0 594.7 0 548.8 0C503 0 457 0 411.2 0C365.3 0 319.7 0 274 0C228.3 0 182.7 0 137 0C91.3 0 45.7 0 22.8 0L0 0Z" fill="#ff0066"></path></svg>